<?xml version="1.0" encoding="UTF-8" standalone="no"?>
<!-- Created with Inkscape (http://www.inkscape.org/) -->

<svg
   xmlns:dc="http://purl.org/dc/elements/1.1/"
   xmlns:cc="http://creativecommons.org/ns#"
   xmlns:rdf="http://www.w3.org/1999/02/22-rdf-syntax-ns#"
   xmlns:svg="http://www.w3.org/2000/svg"
   xmlns="http://www.w3.org/2000/svg"
   xmlns:sodipodi="http://sodipodi.sourceforge.net/DTD/sodipodi-0.dtd"
   xmlns:inkscape="http://www.inkscape.org/namespaces/inkscape"
   width="800"
   height="800"
   id="svg2"
   version="1.1"
   inkscape:version="0.48.4 r9939"
   sodipodi:docname="Соблюдайте тишину.svg">
  <defs
     id="defs4" />
  <sodipodi:namedview
     id="base"
     pagecolor="#ffffff"
     bordercolor="#666666"
     borderopacity="1.0"
     inkscape:pageopacity="0.0"
     inkscape:pageshadow="2"
     inkscape:zoom="0.35"
     inkscape:cx="-1218.1838"
     inkscape:cy="406.39214"
     inkscape:document-units="px"
     inkscape:current-layer="layer1"
     showgrid="false"
     fit-margin-top="0"
     fit-margin-left="0"
     fit-margin-right="0"
     fit-margin-bottom="0"
     inkscape:window-width="1920"
     inkscape:window-height="1018"
     inkscape:window-x="-8"
     inkscape:window-y="-8"
     inkscape:window-maximized="1"
     inkscape:snap-center="true"
     inkscape:snap-object-midpoints="true"
     inkscape:snap-global="false"
     inkscape:object-paths="true"
     inkscape:snap-intersection-paths="true" />
  <metadata
     id="metadata7">
    <rdf:RDF>
      <cc:Work
         rdf:about="">
        <dc:format>image/svg+xml</dc:format>
        <dc:type
           rdf:resource="http://purl.org/dc/dcmitype/StillImage" />
        <dc:title />
      </cc:Work>
    </rdf:RDF>
  </metadata>
  <g
     inkscape:label="Layer 1"
     inkscape:groupmode="layer"
     id="layer1"
     transform="translate(1780.9028,-59.419054)">
    <g
       id="g2987"
       transform="matrix(1.1732889,0,0,1.1732889,308.61072,-148.92779)">
      <rect
         inkscape:export-ydpi="90"
         inkscape:export-xdpi="90"
         ry="65.080452"
         rx="65.080452"
         y="177.57506"
         x="-1780.9028"
         height="681.84399"
         width="681.84399"
         id="rect3862"
         style="fill:#ffffff;fill-opacity:1;stroke:none" />
      <path
         sodipodi:nodetypes="ssssccssscccccccccssscczczczccsssssccs"
         inkscape:connector-curvature="0"
         id="rect3792"
         d="m -1703.7464,177.57518 c -42.7372,0 -77.1563,34.38786 -77.1563,77.125 l 0,527.59375 c 0,42.73714 34.4191,77.125 77.1563,77.125 l 18.3437,0 c 39.1785,-67.98837 57.0111,-113.86296 58.6875,-179.03125 -197.085,-112.29446 -135.4069,-336.84721 42.7813,-379.6875 13.6264,-3.27609 27.0027,-4.81427 40.0312,-4.875 79.6184,-0.37112 145.7051,54.91254 169.4688,112.25 l 67.5312,162.9375 -60,2.875 c 8.8773,13.98081 18.4394,31.53087 35.625,44.96875 l -53.8742,19.43512 45.4055,37.78363 c 1.7707,12.3316 -10.2163,19.25762 -33.9063,21.59375 21.0621,61.13304 13.5595,90.68008 -76.4375,74.375 -2.919,14.35368 0.2387,59.17292 9.9063,87.375 l 98.7187,0 c 0.1038,-30.81153 0.5991,-106.88125 3,-150.5 1.617,-29.37354 6.5296,-70.75208 8.0938,-87.90625 1.4149,-15.51783 14.3915,-23.99086 26.9687,-23.84375 12.5773,0.14711 24.7687,8.93624 24.5625,27.90625 l -1.0312,95.45313 c 4.8877,-7.46765 13.1898,-14.90293 23.2344,-14.90293 10.0446,0 17.9895,7.43528 23.2343,14.90293 4.5305,-8.53908 13.1898,-14.90293 23.2344,-14.90293 10.0446,0 19.4182,7.79242 23.2344,14.90293 2.3877,-7.82479 13.1897,-14.90293 23.2343,-14.90293 10.0446,0 23.1369,11.00671 21.9532,18.8315 l 0,127.52455 c 26.0509,-12.35887 42.6875,-38.83561 42.6875,-69.6875 l 0,-527.59375 c 0,-42.73714 -34.3879,-77.125 -77.125,-77.125 z m 251,291.5625 c -21.316,0.25789 -43.0089,13.92324 -61.2813,37.59375 l 117.125,0 c -16.1437,-26.2469 -35.8197,-37.83601 -55.8437,-37.59375 z"
         style="fill:#000000;stroke:none" />
    </g>
  </g>
</svg>
